<?xml version="1.0" standalone="no"?>
<!DOCTYPE svg PUBLIC "-//W3C//DTD SVG 20010904//EN"
 "http://www.w3.org/TR/2001/REC-SVG-20010904/DTD/svg10.dtd">
<svg version="1.0" xmlns="http://www.w3.org/2000/svg"
 width="16.000000pt" height="16.000000pt" viewBox="0 0 16.000000 16.000000"
 preserveAspectRatio="xMidYMid meet">
<metadata>
Created by potrace 1.11, written by Peter Selinger 2001-2013
</metadata>
<g transform="translate(0.000000,16.000000) scale(0.002286,-0.002286)"
fill="#000000" stroke="none">
<path d="M0 3500 l0 -3500 3500 0 3500 0 0 3500 0 3500 -3500 0 -3500 0 0
-3500z m5414 1939 c80 -29 146 -93 190 -184 l38 -75 -2 -1670 c-1 -1655 -1
-1672 -21 -1726 -39 -102 -136 -197 -233 -226 -23 -7 -81 -12 -131 -12 -79 0
-97 3 -144 28 -78 40 -147 109 -181 182 l-30 62 -1 883 c-1 486 -4 944 -8
1018 l-6 134 -104 -164 c-57 -90 -247 -380 -421 -644 -175 -264 -373 -566
-442 -670 -140 -215 -180 -255 -276 -285 -121 -38 -253 -15 -353 60 -52 39
-110 113 -124 159 -4 13 -46 78 -93 145 -117 166 -327 482 -548 823 -157 243
-183 288 -172 302 10 13 10 14 -2 4 -15 -14 -25 -1 -141 169 l-59 87 0 80 0
79 66 47 c82 59 129 105 153 153 10 20 40 109 65 197 26 88 52 175 58 193 l10
34 35 -49 c97 -132 233 -350 230 -365 -3 -10 0 -15 8 -12 7 3 139 -187 342
-493 181 -274 342 -519 359 -545 16 -27 32 -48 35 -48 7 0 154 220 915 1377
254 385 475 725 490 754 54 98 136 174 223 205 59 21 211 18 275 -7z m-3494
-20 c76 -36 150 -106 185 -175 l29 -58 4 -1626 c3 -1186 1 -1646 -7 -1700 -30
-193 -174 -322 -361 -323 -144 -1 -266 77 -332 211 l-33 67 0 1685 0 1685 29
58 c37 72 107 139 189 178 57 28 69 30 152 27 70 -3 102 -10 145 -29z"/>
<path d="M2599 3793 c-13 -16 -12 -17 4 -4 16 13 21 21 13 21 -2 0 -10 -8 -17
-17z"/>
<path d="M2504 3698 l-29 -33 33 29 c17 17 32 31 32 33 0 8 -8 1 -36 -29z"/>
<path d="M2449 3653 c-13 -16 -12 -17 4 -4 9 7 17 15 17 17 0 8 -8 3 -21 -13z"/>
<path d="M2409 3623 c-13 -16 -12 -17 4 -4 9 7 17 15 17 17 0 8 -8 3 -21 -13z"/>
</g>
</svg>
